# xmcd
#
# Track frame offsets:
#	150
#	23608
#	45485
#	71890
#	93850
#	109523
#	139955
#	150420
#	164105
#	190985
#	204848
#	210838
#
# Disc length: 3059 seconds
#
# Revision: 1
# Processed by: cddbd v1.5PL3 Copyright (c) Steve Scherf et al.
# Submitted via: CDex 1.50Beta5
#
DISCID=990bf10c
DTITLE=SA・KI・KO - WINDS LAND
DYEAR=1900
DGENRE=Pop
TTITLE0=ゴーギャンの夢 〜Dream Gogan's Dream〜
TTITLE1=時代の旅人
TTITLE2=Atmosphere
TTITLE3=Karmemora
TTITLE4=さらさら流れる
TTITLE5=Hello, Sleeping Beauty
TTITLE6=The Wise Eagle
TTITLE7=Forest Rain
TTITLE8=彩々 〜Sai-Sai〜
TTITLE9=遠き君を想い
TTITLE10=Winds Land
TTITLE11=Father Sky, Mother Ocean
EXTD=
EXTT0=
EXTT1=
EXTT2=
EXTT3=
EXTT4=
EXTT5=
EXTT6=
EXTT7=
EXTT8=
EXTT9=
EXTT10=
EXTT11=
PLAYORDER=
